<svg width="13" height="15" viewBox="0 0 13 15" fill="none" xmlns="http://www.w3.org/2000/svg">
<path d="M10.5987 7.92912C6.70053 8.57015 6.00752 9.38444 5.48777 14.1315C5.47044 14.2875 5.24521 14.2875 5.22789 14.1315C4.70813 9.38444 4.01512 8.58748 0.116945 7.92912C-0.0389818 7.91179 -0.0389818 7.68656 0.116945 7.66924C4.01512 7.02821 4.70813 6.23125 5.22789 1.48413C5.24521 1.32821 5.47044 1.32821 5.48777 1.48413C6.00752 6.23125 6.70053 7.01088 10.5987 7.66924C10.7373 7.68656 10.7373 7.89447 10.5987 7.92912Z" fill="#E60000"/>
<path d="M12.2619 2.45585C11.0492 2.6984 10.7027 3.09688 10.4948 4.51755C10.4774 4.67348 10.2522 4.67348 10.2349 4.51755C10.027 3.09688 9.68049 2.6984 8.46772 2.43853C8.32912 2.40388 8.32912 2.2133 8.46772 2.17865C9.66316 1.93609 10.027 1.53761 10.2349 0.116945C10.2522 -0.0389817 10.4774 -0.0389817 10.4948 0.116945C10.7027 1.53761 11.0492 1.93609 12.2619 2.19597C12.4005 2.23062 12.4005 2.43853 12.2619 2.45585Z" fill="#E60000"/>
</svg>
